<svg xmlns="http://www.w3.org/2000/svg" width="32.533" height="31.467" viewBox="0 0 32.533 31.467"><defs><style>.a{fill:none;}.b{fill:#f5f0f0;}</style></defs><path class="a" d="M0,0H32.533V31.467H0Z"/><path class="b" d="M16.267,18.417c-3.172,0-9.489,1.794-9.489,5.367v2.683H25.756V23.783C25.756,20.211,19.439,18.417,16.267,18.417ZM9.95,23.4a11.948,11.948,0,0,1,6.317-1.917A11.948,11.948,0,0,1,22.584,23.4Zm6.317-7.667c2.616,0,4.744-2.407,4.744-5.367S18.883,5,16.267,5s-4.744,2.407-4.744,5.367S13.65,15.733,16.267,15.733Zm0-7.667a2.176,2.176,0,0,1,2.033,2.3,2.176,2.176,0,0,1-2.033,2.3,2.176,2.176,0,0,1-2.033-2.3A2.176,2.176,0,0,1,16.267,8.067Zm6.778,7.667c2.616,0,4.744-2.407,4.744-5.367S25.661,5,23.044,5a4.038,4.038,0,0,0-.962.107,9.165,9.165,0,0,1-.027,10.5A4.277,4.277,0,0,0,23.044,15.733Zm3.145,3.1a6.546,6.546,0,0,1,2.277,4.953v2.683h4.067V23.783C32.533,21.192,29.226,19.551,26.189,18.831Z" transform="translate(0 0)"/></svg>